<svg width="80" height="80" viewBox="0 0 80 80" fill="none" xmlns="http://www.w3.org/2000/svg">
<path d="M39.9932 1C61.5285 1 78.9862 18.4578 78.9863 39.9932C78.9863 61.5286 61.5286 78.9863 39.9932 78.9863C18.4578 78.9862 1 61.5285 1 39.9932C1.00013 18.4579 18.4579 1.00013 39.9932 1Z" fill="#323546"/>
<path d="M39.9932 1C61.5285 1 78.9862 18.4578 78.9863 39.9932C78.9863 61.5286 61.5286 78.9863 39.9932 78.9863C18.4578 78.9862 1 61.5285 1 39.9932C1.00013 18.4579 18.4579 1.00013 39.9932 1Z" stroke="#5A5D6E" stroke-width="2"/>
<g filter="url(#filter0_d_577_1662)">
<path d="M55.9887 27.9961L33.9955 49.9893L23.9985 39.9924" stroke="white" stroke-width="3.99877" stroke-linecap="round" stroke-linejoin="round"/>
</g>
<defs>
<filter id="filter0_d_577_1662" x="12.001" y="16" width="55.9854" height="55.9844" filterUnits="userSpaceOnUse" color-interpolation-filters="sRGB">
<feFlood flood-opacity="0" result="BackgroundImageFix"/>
<feColorMatrix in="SourceAlpha" type="matrix" values="0 0 0 0 0 0 0 0 0 0 0 0 0 0 0 0 0 0 127 0" result="hardAlpha"/>
<feOffset dy="4"/>
<feGaussianBlur stdDeviation="2"/>
<feComposite in2="hardAlpha" operator="out"/>
<feColorMatrix type="matrix" values="0 0 0 0 0 0 0 0 0 0 0 0 0 0 0 0 0 0 0.25 0"/>
<feBlend mode="normal" in2="BackgroundImageFix" result="effect1_dropShadow_577_1662"/>
<feBlend mode="normal" in="SourceGraphic" in2="effect1_dropShadow_577_1662" result="shape"/>
</filter>
</defs>
</svg>
